<svg width="11" height="11" viewBox="0 0 11 11" fill="none" xmlns="http://www.w3.org/2000/svg">
<path d="M9.55564 8.96994V1.19217H1.77786V8.96994H9.55564ZM9.55564 0.0810547C9.85032 0.0810547 10.1329 0.198118 10.3413 0.406492C10.5497 0.614865 10.6667 0.897481 10.6667 1.19217V8.96994C10.6667 9.26463 10.5497 9.54724 10.3413 9.75562C10.1329 9.96399 9.85032 10.0811 9.55564 10.0811H1.77786C1.48317 10.0811 1.20056 9.96399 0.992185 9.75562C0.783811 9.54724 0.666748 9.26463 0.666748 8.96994V1.19217C0.666748 0.897481 0.783811 0.614865 0.992185 0.406492C1.20056 0.198118 1.48317 0.0810547 1.77786 0.0810547H9.55564ZM5.11119 2.30328H6.2223V4.5255H8.44453V5.63661H6.2223V7.85883H5.11119V5.63661H2.88897V4.5255H5.11119V2.30328Z" fill="#FF7F50"/>
</svg>
